<?xml version="1.0" encoding="UTF-8"?>
<svg version="1.1" xmlns="http://www.w3.org/2000/svg" width="720" height="629">
<path d="M0 0 C200.97 0 401.94 0 609 0 C609.20625 78.91125 609.4125 157.8225 609.625 239.125 C609.76156006 276.52287842 609.76156006 276.52287842 609.90087891 314.67626953 C609.94604492 345.08178711 609.94604492 345.08178711 609.95443726 359.30831909 C609.96376753 369.26127703 610.0004688 379.21367447 610.05575562 389.16647339 C610.11942902 400.64601629 610.14835512 412.12502111 610.1344495 423.60474192 C610.12842722 429.47684555 610.1379459 435.34774671 610.19215131 441.21962953 C610.2409135 446.53422084 610.2431771 451.84676276 610.20901108 457.16144943 C610.2047846 459.07818274 610.21734818 460.99504601 610.24882579 462.91152549 C610.45723202 476.39746953 607.95199129 483.89594823 599 494 C597.4731575 495.91188314 595.95129135 497.8277667 594.4375 499.75 C590.77231361 504.15210217 586.97965576 508.42710642 583.12109375 512.66015625 C581.19213665 514.78804815 579.30963647 516.94720859 577.4375 519.125 C571.45666922 525.97401589 564.91014381 532.10570639 558 538 C557.11183594 538.77730469 556.22367188 539.55460938 555.30859375 540.35546875 C545.61657628 548.77666303 535.36597502 556.43301317 525 564 C524.1754834 564.60279785 523.3509668 565.2055957 522.50146484 565.82666016 C474.13512178 600.97511086 415.13611724 629.47643447 354.24951172 629.31567383 C351.76615117 629.31252051 349.28399536 629.3360593 346.80078125 629.36132812 C306.37820135 629.52069405 276.40213354 614.26023435 247.9375 586.125 C242.20728516 580.38182777 236.97547102 574.41445528 232 568 C230.9329823 566.64919375 229.86521487 565.29897954 228.796875 563.94921875 C222.20174264 555.57996261 215.82722526 547.08185962 209.62524414 538.41772461 C204.89905138 531.82369518 200.01086961 525.38062289 195 519 C194.33742188 518.154375 193.67484375 517.30875 192.9921875 516.4375 C147.08694796 458.45193427 94.89594558 441.89144509 23.91947937 428.46981812 C-58.57624075 412.85795236 -58.57624075 412.85795236 -84 389 C-84.84691406 388.24332031 -85.69382812 387.48664063 -86.56640625 386.70703125 C-100.8950174 373.29720127 -110.45762898 354.06925631 -111.37109375 334.3203125 C-111.64041799 320.76468935 -110.55074629 308.79290722 -106 296 C-105.74831055 295.28440918 -105.49662109 294.56881836 -105.23730469 293.83154297 C-99.69098552 278.48672661 -91.56673843 264.09536458 -82.22558594 250.75146484 C-80.76900999 248.66989595 -79.32653346 246.57878575 -77.8828125 244.48828125 C-71.44155329 235.19571811 -64.85195268 226.02757899 -58.11962891 216.9440918 C-24.78407022 171.90781762 1.25314896 127.35092896 1.1328125 69.55859375 C1.13424759 67.98695213 1.13424759 67.98695213 1.13571167 66.38356018 C1.1363871 64.18108052 1.13457769 61.97859879 1.13037109 59.77612305 C1.12505203 56.46984181 1.13031839 53.16369877 1.13671875 49.85742188 C1.13966067 39.39096459 1.04491391 28.96186119 0.34939575 18.51548767 C-0.0538835 12.29892664 0 6.28634548 0 0 Z " fill="aqua" transform="translate(111,0)"/>
</svg>
